<svg width="31" height="31" viewBox="0 0 31 31" fill="none" xmlns="http://www.w3.org/2000/svg">
<path d="M28.8402 14.5851C28.8402 21.8145 22.9796 27.6751 15.7502 27.6751C8.52075 27.6751 2.66016 21.8145 2.66016 14.5851C2.66016 7.35571 8.52075 1.49512 15.7502 1.49512C22.9796 1.49512 28.8402 7.35571 28.8402 14.5851Z" fill="#C9C9C9"/>
<path d="M10.6048 21.4418C10.1334 21.4418 9.73 21.2885 9.39459 20.9819C9.05861 20.6747 8.89062 20.3056 8.89062 19.8746V12.822C8.89062 12.5739 8.95148 12.3388 9.07318 12.1168C9.19432 11.8948 9.36202 11.7119 9.57629 11.5682L14.7188 8.04196C14.8759 7.93748 15.0402 7.85912 15.2116 7.80688C15.383 7.75464 15.5616 7.72852 15.7473 7.72852C15.933 7.72852 16.1116 7.75464 16.283 7.80688C16.4544 7.85912 16.6187 7.93748 16.7758 8.04196L21.9183 11.5682C22.1326 11.7119 22.3006 11.8948 22.4223 12.1168C22.5434 12.3388 22.604 12.5739 22.604 12.822V19.8746C22.604 20.3056 22.4363 20.6747 22.1009 20.9819C21.7649 21.2885 21.3612 21.4418 20.8898 21.4418H17.4615V15.9565H14.0331V21.4418H10.6048Z" fill="#9A9797"/>
</svg>
