<svg width="31" height="30" viewBox="0 0 31 30" fill="none" xmlns="http://www.w3.org/2000/svg">
<path d="M15.4613 0L2 11.9992V28.4989C2.01138 28.9078 2.1845 29.2954 2.48137 29.5767C2.77824 29.858 3.17459 30.0101 3.58344 29.9995H11.5047V22.4989C11.5031 22.2943 11.5435 22.0916 11.6236 21.9033C11.7037 21.7151 11.8217 21.5453 11.9703 21.4047C12.1188 21.264 12.2947 21.1554 12.487 21.0857C12.6794 21.016 12.884 20.9866 13.0881 20.9993H17.8405C18.2471 20.996 18.6392 21.1504 18.9344 21.43C19.2297 21.7096 19.4051 22.0927 19.4239 22.4989V29.9995H27.3391C27.748 30.0101 28.1443 29.858 28.4412 29.5767C28.7381 29.2954 28.9112 28.9078 28.9226 28.4989V11.9992L15.4613 0Z" fill="#D1D1D1"/>
</svg>
