<svg width="31" height="30" viewBox="0 0 31 30" fill="none" xmlns="http://www.w3.org/2000/svg">
<path d="M29.9503 2.16899H26.1015C26.1154 1.7425 26.1227 1.31393 26.1234 0.883275C26.1235 0.767844 26.1009 0.653518 26.0568 0.546834C26.0128 0.44015 25.9481 0.343201 25.8665 0.26153C25.7849 0.17986 25.6881 0.11507 25.5814 0.0708644C25.4748 0.0266592 25.3605 0.00390617 25.2451 0.00390625L6.42096 0.00390625C6.18801 0.00390625 5.96461 0.096444 5.79989 0.261162C5.63517 0.42588 5.54263 0.649286 5.54263 0.882233C5.54263 1.31289 5.54992 1.74146 5.56451 2.16795H1.71467C1.59924 2.16795 1.48494 2.1907 1.37831 2.2349C1.27168 2.27911 1.1748 2.3439 1.09323 2.42557C1.01166 2.50724 0.94698 2.60419 0.902901 2.71087C0.858822 2.81756 0.836205 2.93188 0.836342 3.04731C0.767231 6.74112 1.77397 10.3753 3.73388 13.507C5.58118 16.2826 8.04112 17.8747 10.698 18.0299C11.2554 18.6479 11.8957 19.1857 12.6005 19.6282V23.5333H11.1272C10.271 23.5347 9.45031 23.8754 8.84488 24.4808C8.23945 25.0862 7.89872 25.907 7.89734 26.7632V28.2396H7.83483C7.60174 28.2396 7.3782 28.3322 7.21339 28.497C7.04857 28.6618 6.95598 28.8853 6.95598 29.1184C6.95598 29.3515 7.04857 29.575 7.21339 29.7398C7.3782 29.9047 7.60174 29.9973 7.83483 29.9973H23.8333C24.0664 29.9973 24.2899 29.9047 24.4547 29.7398C24.6195 29.575 24.7121 29.3515 24.7121 29.1184C24.7121 28.8853 24.6195 28.6618 24.4547 28.497C24.2899 28.3322 24.0664 28.2396 23.8333 28.2396H23.7708V26.7653C23.7694 25.9091 23.4287 25.0883 22.8232 24.4829C22.2178 23.8775 21.3971 23.5367 20.5409 23.5354H19.0697V19.6282C19.7728 19.185 20.4112 18.6468 20.967 18.0289C23.6249 17.8736 26.0849 16.2816 27.9322 13.506C29.8919 10.3745 30.8986 6.74077 30.8297 3.04731C30.8297 2.93188 30.8069 2.81758 30.7627 2.71095C30.7185 2.60432 30.6537 2.50745 30.5721 2.42587C30.4904 2.3443 30.3934 2.27963 30.2868 2.23555C30.1801 2.19147 30.0658 2.16885 29.9503 2.16899ZM5.19672 12.5339C3.57399 9.95008 2.67942 6.97589 2.60758 3.92564H5.66245C5.89189 7.62093 6.8181 11.2395 8.39224 14.5906C8.62633 15.0594 8.86944 15.5023 9.12158 15.919C7.49188 15.2282 6.11939 14.0444 5.19672 12.5339ZM26.4683 12.5339C25.5438 14.0436 24.1699 15.2259 22.5392 15.9149C22.7935 15.4981 23.0366 15.0553 23.2686 14.5864C24.842 11.2369 25.7682 7.62018 25.9984 3.92668H29.048C28.9785 6.97579 28.0868 9.94952 26.4672 12.5339H26.4683Z" fill="#6DCAFF"/>
</svg>
