<svg width="31" height="30" viewBox="0 0 31 30" fill="none" xmlns="http://www.w3.org/2000/svg">
<path fill-rule="evenodd" clip-rule="evenodd" d="M30.4075 13.3338C30.3538 13.1199 30.2292 12.9305 30.0541 12.7964C29.879 12.6623 29.6636 12.5915 29.4431 12.5954C28.7707 12.6045 28.1114 12.4086 27.553 12.0339C26.9946 11.6592 26.5636 11.1234 26.3171 10.4977C26.0706 9.87199 26.0205 9.18611 26.1733 8.53123C26.3262 7.87636 26.6747 7.28352 27.1727 6.83157C27.328 6.68937 27.4236 6.49367 27.4405 6.28379C27.4573 6.07392 27.3941 5.86545 27.2635 5.70031C26.5654 4.81261 25.7682 4.00749 24.8875 3.30059C24.7214 3.16795 24.511 3.1036 24.2992 3.12066C24.0874 3.13771 23.89 3.23489 23.7473 3.3924C23.2764 3.88623 22.6698 4.22955 22.0039 4.37905C21.3381 4.52856 20.643 4.47754 20.0061 4.23245C19.3739 3.9644 18.84 3.50757 18.4774 2.92445C18.1148 2.34134 17.9413 1.66044 17.9805 0.974907C17.993 0.762479 17.9236 0.553343 17.7866 0.390489C17.6497 0.227635 17.4555 0.123439 17.2441 0.0993196C16.1233 -0.0304111 14.9915 -0.0330603 13.8701 0.0914226C13.6611 0.114672 13.4685 0.215923 13.3309 0.374946C13.1933 0.53397 13.1207 0.739058 13.1277 0.949241C13.1513 1.62788 12.9672 2.29754 12.6002 2.86884C12.2331 3.44014 11.7005 3.88588 11.0735 4.14656C10.4397 4.38335 9.75053 4.42952 9.09084 4.27937C8.43114 4.12922 7.82979 3.78933 7.36092 3.30158C7.21937 3.14547 7.02408 3.04857 6.81415 3.03026C6.60421 3.01196 6.39511 3.07361 6.22868 3.20287C5.33069 3.90688 4.51656 4.71174 3.8023 5.6016C3.66919 5.76731 3.60436 5.97759 3.62106 6.18949C3.63775 6.40138 3.73471 6.59892 3.89213 6.74174C4.40147 7.20239 4.75561 7.80951 4.90586 8.47962C5.05611 9.14973 4.99509 9.84994 4.7312 10.484C4.4486 11.1074 3.98782 11.6333 3.4069 11.9953C2.82599 12.3573 2.15092 12.5394 1.46675 12.5184C1.25482 12.5041 1.04568 12.5731 0.88381 12.7106C0.721943 12.8481 0.620133 13.0434 0.600044 13.2548C0.469288 14.3879 0.467963 15.5321 0.596096 16.6654C0.652623 16.882 0.781117 17.073 0.960489 17.207C1.13986 17.341 1.35945 17.41 1.58323 17.4028C2.24458 17.3954 2.89281 17.5875 3.44329 17.9542C3.99377 18.3208 4.42092 18.8449 4.66901 19.458C4.92357 20.088 4.97963 20.7808 4.82968 21.4436C4.67973 22.1064 4.33093 22.7075 3.82994 23.1666C3.67494 23.3088 3.57943 23.5043 3.56259 23.7139C3.54575 23.9236 3.60881 24.1318 3.73913 24.2969C4.4354 25.1843 5.2302 25.9897 6.10825 26.6976C6.27414 26.8309 6.48471 26.8957 6.69685 26.8789C6.90898 26.862 7.10664 26.7646 7.24937 26.6068C7.72004 26.1132 8.32627 25.7699 8.99169 25.6203C9.65711 25.4706 10.3519 25.5212 10.9886 25.7658C11.622 26.0326 12.1571 26.489 12.5206 27.0723C12.884 27.6556 13.0578 28.3372 13.0182 29.0233C13.0057 29.2358 13.075 29.4451 13.212 29.6081C13.3489 29.7711 13.5431 29.8755 13.7546 29.8999C14.8753 30.0303 16.0072 30.0333 17.1286 29.9088C17.3378 29.8855 17.5305 29.7841 17.6681 29.6249C17.8057 29.4656 17.8782 29.2603 17.8709 29.05C17.8465 28.3713 18.0299 27.7013 18.3967 27.1297C18.7634 26.5582 19.296 26.1122 19.9232 25.8516C20.5571 25.6137 21.2469 25.5669 21.9072 25.7171C22.5674 25.8673 23.1691 26.2078 23.6378 26.6966C23.7796 26.8523 23.9748 26.9489 24.1846 26.9672C24.3944 26.9855 24.6034 26.9242 24.77 26.7953C25.6678 26.0911 26.4819 25.2863 27.1964 24.3966C27.3297 24.231 27.3947 24.0207 27.378 23.8087C27.3613 23.5967 27.2642 23.3992 27.1065 23.2565C26.5972 22.796 26.243 22.1891 26.0926 21.5192C25.9422 20.8493 26.0029 20.1492 26.2665 19.5152C26.5242 18.9143 26.9518 18.4017 27.4969 18.0404C28.0419 17.6792 28.6806 17.485 29.3345 17.4817H29.5201C29.7325 17.494 29.9416 17.4248 30.1047 17.2881C30.2678 17.1514 30.3726 16.9576 30.3976 16.7463C30.5306 15.6129 30.5339 14.468 30.4075 13.3338ZM15.5225 20.0345C14.5331 20.0345 13.5658 19.7411 12.7431 19.1913C11.9204 18.6416 11.2792 17.8603 10.9006 16.9462C10.5219 16.032 10.4228 15.0261 10.6159 14.0557C10.8089 13.0852 11.2854 12.1938 11.985 11.4942C12.6847 10.7945 13.5761 10.3181 14.5465 10.125C15.517 9.93198 16.5229 10.0311 17.437 10.4097C18.3512 10.7884 19.1325 11.4296 19.6822 12.2523C20.2319 13.075 20.5253 14.0422 20.5253 15.0317C20.5238 16.358 19.9962 17.6296 19.0583 18.5675C18.1204 19.5053 16.8489 20.0329 15.5225 20.0345Z" fill="#6DCAFF"/>
</svg>
