<svg width="31" height="30" viewBox="0 0 31 30" fill="none" xmlns="http://www.w3.org/2000/svg">
<path d="M16.2658 30C14.1528 30.0016 12.0601 29.5869 10.1073 28.7796C8.15453 27.9723 6.37993 26.7882 4.88486 25.2949C3.38979 23.8016 2.20354 22.0284 1.39387 20.0766C0.5842 18.1248 0.166972 16.0327 0.166016 13.9196L0.166016 13.9002C0.166016 13.8795 0.166016 13.8601 0.166016 13.8395C0.166016 13.8188 0.166016 13.8201 0.166016 13.8116C0.166016 13.8031 0.166016 13.7873 0.166016 13.7751C0.166016 13.763 0.166016 13.7533 0.166016 13.7424C0.166016 13.7315 0.166016 13.7205 0.166016 13.7096C0.166016 13.6987 0.166016 13.6865 0.166016 13.6756C0.166016 13.6647 0.166016 13.6538 0.166016 13.6441C0.166016 13.6343 0.166016 13.621 0.166016 13.6101C0.166016 13.5991 0.166016 13.5894 0.166016 13.5785C0.166016 13.5676 0.166016 13.5542 0.166016 13.5433C0.166016 13.5324 0.166016 13.5239 0.166016 13.513C0.166016 13.502 0.166016 13.4887 0.166016 13.4766C0.166016 13.4644 0.166016 13.4571 0.166016 13.4474C0.166016 13.4377 0.166016 13.4231 0.166016 13.411C0.166016 13.3989 0.166016 13.3916 0.166016 13.3819C0.166016 13.3722 0.166016 13.3576 0.166016 13.3455C0.166016 13.3333 0.166016 13.326 0.166016 13.3151C0.166016 13.3042 0.166016 13.2908 0.166016 13.2799C0.166016 13.269 0.166016 13.2605 0.166016 13.2508C0.166016 13.2411 0.166016 13.2265 0.166016 13.2156C0.166016 13.2047 0.166016 13.1962 0.166016 13.1865C0.166016 13.1767 0.166016 13.1622 0.166016 13.15V13.1209V13.0845C0.166016 13.0748 0.166016 13.0651 0.166016 13.0554C0.166016 13.0457 0.166016 13.0311 0.166016 13.019V12.9922C0.166016 12.9801 0.166016 12.9668 0.166016 12.9534V12.9279V12.8891C0.166016 12.8806 0.166016 12.8733 0.166016 12.8648V12.8247V12.798V12.7289V12.6961V12.6645V12.6317V12.6014V12.5662V12.5383V12.5019V12.474V12.4363V12.4096V12.372V12.3453V12.3052V12.281V12.2397V12.2166V12.1741V12.1523V12.1074V12.088V12.0406V12.0236V11.9739V11.9569L0.287395 11.9023V11.8889C0.613997 9.26495 1.58567 6.7628 3.11555 4.60611L3.12768 4.58912L3.14953 4.55756L3.16774 4.53207L3.18473 4.50901L3.20658 4.47866L3.21993 4.46046L3.24542 4.42526L3.25513 4.41312L3.28426 4.37428V4.36578L3.32189 4.3233C4.54388 2.6755 6.06795 1.27501 7.81295 0.196382C8.03914 0.0553991 8.30326 -0.0125066 8.56941 0.00189651C8.83555 0.0162996 9.0908 0.112313 9.30046 0.276883C9.51012 0.441453 9.66401 0.666595 9.74121 0.921701C9.81842 1.17681 9.81519 1.4495 9.73196 1.70271C8.86197 4.31175 8.73574 7.11153 9.36744 9.78828C9.99914 12.465 11.3638 14.913 13.3085 16.8578C15.2531 18.8026 17.701 20.1674 20.3777 20.7993C23.0544 21.4311 25.8542 21.3051 28.4633 20.4353C28.7157 20.3521 28.9877 20.3484 29.2423 20.4247C29.4969 20.5011 29.7219 20.6538 29.8868 20.8622C30.0518 21.0706 30.1488 21.3247 30.1647 21.59C30.1806 21.8554 30.1146 22.1192 29.9757 22.3458C29.3398 23.3756 28.5902 24.3308 27.7411 25.1933L27.7241 25.2103L27.7071 25.2286L27.6792 25.2565L27.6683 25.2674L27.6331 25.3026C24.8327 28.1008 21.0966 29.7648 17.1434 29.9745H17.0791H17.0196H17.0099H16.9541H16.9419H16.8897H16.2743L16.2658 30Z" fill="#6DCAFF"/>
</svg>
